{"title":"The Fall of the Essex Boys 2012 BRRip XViD juggs","uid":8174488,"size":739420239,"categoryP":"video","categoryS":"movies","magnet":"?xt=urn:btih:413ac8257d9e80c3b9026ee53a1cd689d77d2913&amp;dn=The+Fall+of+the+Essex+Boys+2012+BRRip+XViD+juggs&amp;tr=udp%3A%2F%2Ftracker.openbittorrent.com%3A80&amp;tr=udp%3A%2F%2Fopen.demonii.com%3A1337&amp;tr=udp%3A%2F%2Ftracker.coppersurfer.tk%3A6969&amp;tr=udp%3A%2F%2Fexodus.desync.com%3A6969","seeders":2,"leechers":0,"uploader":"juggs99","files":3,"time":1361492552,"description":"Source : SONiDO\n\nFormat : AVI\nFormat/Info : Audio Video Interleave\nFile size : 702 MiB\nDuration : 1h 27mn\nOverall bit rate : 1 125 Kbps\nWriting library : VirtualDub build 32842/release\n\nVideo\nID : 0\nFormat : MPEG-4 Visual\nFormat profile : Advanced Simple@L5\nFormat settings, BVOP : 4\nFormat settings, QPel : No\nFormat settings, GMC : No warppoints\nFormat settings, Matrix : Default (H.263)\nMuxing mode : Packed bitstream\nCodec ID : XVID\nCodec ID/Hint : XviD\nDuration : 1h 27mn\nBit rate : 988 Kbps\nWidth : 640 pixels\nHeight : 256 pixels\nDisplay aspect ratio : 2.500\nFrame rate : 25.000 fps\nColor space : YUV\nChroma subsampling : 4:2:0\nBit depth : 8 bits\nScan type : Progressive\nCompression mode : Lossy\nBits/(Pixel*Frame) : 0.241\nStream size : 616 MiB (88%)\nWriting library : XviD 64\n\nAudio\nID : 1\nFormat : MPEG Audio\nFormat version : Version 1\nFormat profile : Layer 3\nCodec ID : 55\nCodec ID/Hint : MP3\nDuration : 1h 27mn\nBit rate mode : Constant\nBit rate : 128 Kbps\nChannel(s) : 2 channels\nSampling rate : 44.1 KHz\nCompression mode : Lossy\nStream size : 79.8 MiB (11%)\nAlignment : Split accross interleaves\nInterleave, duration : 40 ms (1.00 video frame)\nInterleave, preload duration : 500 ms\nWriting library : LAME3.99r\nEncoding settings : -m s -V 4 -q 3 -lowpass 17 -b 128\n\n\nPlot\nThe rise and fall of the Essex Boys gang - the drugs, the violence and, of course, the murders. The real story is the most shocking of all.\n\n\n &lt;a href=&quot;\nhttp://www.shotpix.com/images/93621884315838758000.png&quot; rel=&quot;nofollow&quot; target=&quot;_NEW&quot;&gt;\nhttp://www.shotpix.com/images/93621884315838758000.png&lt;/a&gt; &lt;a href=&quot;\nhttp://www.shotpix.com/images/49911981294214987164.png&quot; rel=&quot;nofollow&quot; target=&quot;_NEW&quot;&gt;\nhttp://www.shotpix.com/images/49911981294214987164.png&lt;/a&gt; &lt;a href=&quot;\nhttp://www.shotpix.com/images/91683731393622722609.png&quot; rel=&quot;nofollow&quot; target=&quot;_NEW&quot;&gt;\nhttp://www.shotpix.com/images/91683731393622722609.png&lt;/a&gt;","torrent":{"xt":"urn:btih:413ac8257d9e80c3b9026ee53a1cd689d77d2913","amp;dn":"The+Fall+of+the+Essex+Boys+2012+BRRip+XViD+juggs","amp;tr":["udp%3A%2F%2Ftracker.openbittorrent.com%3A80","udp%3A%2F%2Fopen.demonii.com%3A1337","udp%3A%2F%2Ftracker.coppersurfer.tk%3A6969","udp%3A%2F%2Fexodus.desync.com%3A6969"],"infoHash":"413ac8257d9e80c3b9026ee53a1cd689d77d2913","infoHashBuffer":{"type":"Buffer","data":[65,58,200,37,125,158,128,195,185,2,110,229,58,28,214,137,215,125,41,19]},"announce":[],"urlList":[]}}